<svg width="152" height="123" viewBox="0 0 152 123" fill="none" xmlns="http://www.w3.org/2000/svg">
<rect x="0.0756836" y="117.577" width="151.849" height="5.42316" fill="white"/>
<path d="M23.5762 51.535V118.421H18.153V51.535H23.5762Z" fill="white"/>
<path d="M90.4619 36.2294V119.385H85.0387V36.2294H90.4619Z" fill="white"/>
<path d="M56.115 13.6329V44.3642H50.6918V13.6329H56.115Z" fill="white"/>
<rect x="66.9614" y="50.2754" width="68.6934" height="5.42316" transform="rotate(90 66.9614 50.2754)" fill="white"/>
<rect x="133.847" y="33.45" width="84.9629" height="5.42316" transform="rotate(90 133.847 33.45)" fill="white"/>
<rect x="99.5005" y="11.7573" width="21.6927" height="5.42316" transform="rotate(90 99.5005 11.7573)" fill="white"/>
<rect x="43.4609" y="42.4964" width="75.9243" height="5.42316" transform="rotate(90 43.4609 42.4964)" fill="white"/>
<path d="M110.347 27.8424V117.638H104.924V27.8424H110.347Z" fill="white"/>
<rect x="76" y="4.53427" width="115.694" height="5.42316" transform="rotate(90 76 4.53427)" fill="white"/>
<path d="M44.1023 42.8183L20.8646 56.2346L18.153 51.538L41.3907 38.1217L44.1023 42.8183Z" fill="white"/>
<path d="M76.6414 4.85625L53.4037 18.2725L50.6921 13.5759L73.9298 0.159649L76.6414 4.85625Z" fill="white"/>
<path d="M39.8467 43.141L52.4528 47.7293L65.059 52.3175L66.9625 51.535L66.9757 47.3344L41.7635 38.1579L41.3852 38.1579L39.8467 43.141Z" fill="white"/>
<path d="M106.732 27.7076L119.339 32.2958L131.945 36.8841L133.848 36.1016L133.861 31.901L108.649 22.7244L108.271 22.7245L106.732 27.7076Z" fill="white"/>
<path d="M72.3857 5.17891L84.9919 9.76717L97.598 14.3554L99.5016 13.5729L99.5148 9.3723L74.3025 0.195774L73.9243 0.195795L72.3857 5.17891Z" fill="white"/>
<path d="M51.8519 55.285L46.4308 53.477L46.4307 49.8617L51.8395 51.6694L51.8519 55.285Z" fill="white"/>
<path d="M118.583 40.5654L113.162 38.7575L113.162 35.1421L118.571 36.9498L118.583 40.5654Z" fill="white"/>
<path d="M84.391 17.3228L78.9698 15.5149L78.9698 11.8995L84.3786 13.7072L84.391 17.3228Z" fill="white"/>
<path d="M51.8519 64.3236L46.4308 62.5156L46.4307 58.9003L51.8395 60.708L51.8519 64.3236Z" fill="white"/>
<path d="M118.583 49.604L113.162 47.7961L113.162 44.1807L118.571 45.9884L118.583 49.604Z" fill="white"/>
<path d="M84.391 26.3614L78.9698 24.5535L78.9698 20.9381L84.3786 22.7458L84.391 26.3614Z" fill="white"/>
<path d="M51.8519 73.3622L46.4308 71.5543L46.4307 67.9389L51.8395 69.7466L51.8519 73.3622Z" fill="white"/>
<path d="M118.583 58.6426L113.162 56.8347L113.162 53.2193L118.571 55.027L118.583 58.6426Z" fill="white"/>
<path d="M84.391 35.4L78.9698 33.5921L78.9698 29.9767L84.3786 31.7844L84.391 35.4Z" fill="white"/>
<path d="M51.8519 82.4008L46.4308 80.5929L46.4307 76.9775L51.8395 78.7852L51.8519 82.4008Z" fill="white"/>
<path d="M118.583 67.6812L113.162 65.8733L113.162 62.2579L118.571 64.0656L118.583 67.6812Z" fill="white"/>
<path d="M84.391 44.4387L78.9698 42.6307L78.9698 39.0153L84.3786 40.823L84.391 44.4387Z" fill="white"/>
<path d="M51.8519 91.4394L46.4308 89.6315L46.4307 86.0161L51.8395 87.8238L51.8519 91.4394Z" fill="white"/>
<path d="M118.583 76.7199L113.162 74.9119L113.162 71.2965L118.571 73.1042L118.583 76.7199Z" fill="white"/>
<path d="M84.391 53.4773L78.9698 51.6693L78.9698 48.0539L84.3786 49.8616L84.391 53.4773Z" fill="white"/>
<path d="M51.8519 100.478L46.4308 98.6701L46.4307 95.0547L51.8395 96.8624L51.8519 100.478Z" fill="white"/>
<path d="M118.583 85.7584L113.162 83.9505L113.162 80.3351L118.571 82.1428L118.583 85.7584Z" fill="white"/>
<path d="M84.391 62.5159L78.9698 60.7079L78.9698 57.0926L84.3786 58.9003L84.391 62.5159Z" fill="white"/>
<path d="M51.8519 109.517L46.4308 107.709L46.4307 104.093L51.8395 105.901L51.8519 109.517Z" fill="white"/>
<path d="M118.583 94.7971L113.162 92.9891L113.162 89.3737L118.571 91.1815L118.583 94.7971Z" fill="white"/>
<path d="M118.583 103.836L113.162 102.028L113.162 98.4124L118.571 100.22L118.583 103.836Z" fill="white"/>
<path d="M118.583 112.874L113.162 111.066L113.162 107.451L118.571 109.259L118.583 112.874Z" fill="white"/>
<path d="M84.391 71.5545L78.9698 69.7465L78.9698 66.1312L84.3786 67.9389L84.391 71.5545Z" fill="white"/>
<path d="M84.391 80.5931L78.9698 78.7851L78.9698 75.1698L84.3786 76.9775L84.391 80.5931Z" fill="white"/>
<path d="M84.391 89.6317L78.9698 87.8238L78.9698 84.2084L84.3786 86.0161L84.391 89.6317Z" fill="white"/>
<path d="M84.391 98.6703L78.9698 96.8624L78.9698 93.247L84.3786 95.0547L84.391 98.6703Z" fill="white"/>
<path d="M84.391 107.709L78.9698 105.901L78.9698 102.286L84.3786 104.093L84.391 107.709Z" fill="white"/>
<path d="M59.0826 57.7389L53.6615 55.931L53.6614 52.3156L59.0702 54.1233L59.0826 57.7389Z" fill="white"/>
<path d="M125.814 43.0194L120.393 41.2114L120.393 37.596L125.802 39.4037L125.814 43.0194Z" fill="white"/>
<path d="M91.6217 19.7768L86.2005 17.9688L86.2005 14.3535L91.6093 16.1612L91.6217 19.7768Z" fill="white"/>
<path d="M59.0826 66.7775L53.6615 64.9696L53.6614 61.3542L59.0702 63.1619L59.0826 66.7775Z" fill="white"/>
<path d="M125.814 52.058L120.393 50.2501L120.393 46.6347L125.802 48.4424L125.814 52.058Z" fill="white"/>
<path d="M91.6217 28.8154L86.2005 27.0075L86.2005 23.3921L91.6093 25.1998L91.6217 28.8154Z" fill="white"/>
<path d="M59.0826 75.8162L53.6615 74.0082L53.6614 70.3928L59.0702 72.2005L59.0826 75.8162Z" fill="white"/>
<path d="M125.814 61.0966L120.393 59.2887L120.393 55.6733L125.802 57.481L125.814 61.0966Z" fill="white"/>
<path d="M91.6217 37.854L86.2005 36.0461L86.2005 32.4307L91.6093 34.2384L91.6217 37.854Z" fill="white"/>
<path d="M59.0826 84.8548L53.6615 83.0468L53.6614 79.4314L59.0702 81.2391L59.0826 84.8548Z" fill="white"/>
<path d="M125.814 70.1352L120.393 68.3272L120.393 64.7119L125.802 66.5196L125.814 70.1352Z" fill="white"/>
<path d="M59.0826 93.8934L53.6615 92.0854L53.6614 88.4701L59.0702 90.2778L59.0826 93.8934Z" fill="white"/>
<path d="M125.814 79.1738L120.393 77.3659L120.393 73.7505L125.802 75.5582L125.814 79.1738Z" fill="white"/>
<path d="M59.0826 102.932L53.6615 101.124L53.6614 97.5087L59.0702 99.3164L59.0826 102.932Z" fill="white"/>
<path d="M125.814 88.2124L120.393 86.4044L120.393 82.7891L125.802 84.5968L125.814 88.2124Z" fill="white"/>
<path d="M59.0826 111.971L53.6615 110.163L53.6614 106.547L59.0702 108.355L59.0826 111.971Z" fill="white"/>
<path d="M125.814 97.251L120.393 95.443L120.393 91.8277L125.802 93.6354L125.814 97.251Z" fill="white"/>
<path d="M125.814 106.29L120.393 104.482L120.393 100.866L125.802 102.674L125.814 106.29Z" fill="white"/>
<path d="M125.814 115.328L120.393 113.52L120.393 109.905L125.802 111.713L125.814 115.328Z" fill="white"/>
<path d="M110.988 27.3849L87.7501 40.8012L85.0385 36.1046L108.276 22.6883L110.988 27.3849Z" fill="white"/>
</svg>
