<!DOCTYPE svg PUBLIC "-//W3C//DTD SVG 1.1//EN" "http://www.w3.org/Graphics/SVG/1.1/DTD/svg11.dtd">
<!-- Uploaded to: SVG Repo, www.svgrepo.com, Transformed by: SVG Repo Mixer Tools -->
<svg fill="#ffffff" width="128px" height="128px" viewBox="-16 0 150 150" xmlns="http://www.w3.org/2000/svg" stroke="#ffffff">
<g id="SVGRepo_bgCarrier" stroke-width="0"/>
<g id="SVGRepo_tracerCarrier" stroke-linecap="round" stroke-linejoin="round"/>
<g id="SVGRepo_iconCarrier">
<path d=" M 116.87341940403,70.0057357549667 C 116.87341940403,70.0057357549667 110.504413247108,70.0057357549667 110.504413247108,70.0057357549667 C 110.504413247108,70.0057357549667 110.504413247108,148.088979721069 110.504413247108,148.088979721069 C 110.504413247108,148.088979721069 7.56642663478851,148.088979721069 7.56642663478851,148.088979721069 C 7.56642663478851,148.088979721069 7.56642663478851,70.0057357549667 7.56642663478851,70.0057357549667 C 7.56642663478851,70.0057357549667 1.70945525169373,70.0057357549667 1.70945525169373,70.0057357549667 C 1.70945525169373,70.0057357549667 16.1050026416779,26.7983347177505 16.1050026416779,26.7983347177505 C 16.1050026416779,26.7983347177505 32.9082690477371,26.7983347177505 32.9082690477371,26.7983347177505 C 32.9082690477371,26.7983347177505 55.3464570045471,1.30255222320557 55.3464570045471,1.30255222320557 C 55.3464570045471,1.30255222320557 78.3912360668182,26.7983347177505 78.3912360668182,26.7983347177505 C 78.3912360668182,26.7983347177505 98.8790625333786,26.7983347177505 98.8790625333786,26.7983347177505 C 98.8790625333786,26.7983347177505 116.87341940403,70.0057357549667 116.87341940403,70.0057357549667 Z M 21.9427659511566,133.00119638443 C 21.9427659511566,133.00119638443 45.6977021694183,133.00119638443 45.6977021694183,133.00119638443 C 45.6977021694183,133.00119638443 45.6977021694183,108.574667572975 45.6977021694183,108.574667572975 C 45.6977021694183,108.574667572975 21.9427659511566,108.574667572975 21.9427659511566,108.574667572975 C 21.9427659511566,108.574667572975 21.9427659511566,133.00119638443 21.9427659511566,133.00119638443 Z M 21.9427659511566,99.7956097126007 C 21.9427659511566,99.7956097126007 45.6977021694183,99.7956097126007 45.6977021694183,99.7956097126007 C 45.6977021694183,99.7956097126007 45.6977021694183,75.3690719604492 45.6977021694183,75.3690719604492 C 45.6977021694183,75.3690719604492 21.9427659511566,75.3690719604492 21.9427659511566,75.3690719604492 C 21.9427659511566,75.3690719604492 21.9427659511566,99.7956097126007 21.9427659511566,99.7956097126007 Z M 96.481752872467,75.3690719604492 C 96.481752872467,75.3690719604492 72.7268588542938,75.3690719604492 72.7268588542938,75.3690719604492 C 72.7268588542938,75.3690719604492 72.7268588542938,99.7956097126007 72.7268588542938,99.7956097126007 C 72.7268588542938,99.7956097126007 96.481752872467,99.7956097126007 96.481752872467,99.7956097126007 C 96.481752872467,99.7956097126007 96.481752872467,75.3690719604492 96.481752872467,75.3690719604492 Z M 96.481752872467,108.574667572975 C 96.481752872467,108.574667572975 72.7268588542938,108.574667572975 72.7268588542938,108.574667572975 C 72.7268588542938,108.574667572975 72.7268588542938,133.00119638443 72.7268588542938,133.00119638443 C 72.7268588542938,133.00119638443 96.481752872467,133.00119638443 96.481752872467,133.00119638443 C 96.481752872467,133.00119638443 96.481752872467,108.574667572975 96.481752872467,108.574667572975 Z M 82.9536986351013,119.283843040466 C 82.9536986351013,119.283843040466 75.1945793628693,119.283843040466 75.1945793628693,119.283843040466 C 75.1945793628693,119.283843040466 75.1945793628693,111.520931124687 75.1945793628693,111.520931124687 C 75.1945793628693,111.520931124687 82.9536986351013,111.520931124687 82.9536986351013,111.520931124687 C 82.9536986351013,111.520931124687 82.9536986351013,119.283843040466 82.9536986351013,119.283843040466 Z M 82.9536986351013,130.307829380035 C 82.9536986351013,130.307829380035 75.1945793628693,130.307829380035 75.1945793628693,130.307829380035 C 75.1945793628693,130.307829380035 75.1945793628693,122.54490852356 75.1945793628693,122.54490852356 C 75.1945793628693,122.54490852356 82.9536986351013,122.54490852356 82.9536986351013,122.54490852356 C 82.9536986351013,122.54490852356 82.9536986351013,130.307829380035 82.9536986351013,130.307829380035 Z M 93.9724652767181,119.283843040466 C 93.9724652767181,119.283843040466 86.2132616043091,119.283843040466 86.2132616043091,119.283843040466 C 86.2132616043091,119.283843040466 86.2132616043091,111.520931124687 86.2132616043091,111.520931124687 C 86.2132616043091,111.520931124687 93.9724652767181,111.520931124687 93.9724652767181,111.520931124687 C 93.9724652767181,111.520931124687 93.9724652767181,119.283843040466 93.9724652767181,119.283843040466 Z M 93.9724652767181,130.307829380035 C 93.9724652767181,130.307829380035 86.2132616043091,130.307829380035 86.2132616043091,130.307829380035 C 86.2132616043091,130.307829380035 86.2132616043091,122.54490852356 86.2132616043091,122.54490852356 C 86.2132616043091,122.54490852356 93.9724652767181,122.54490852356 93.9724652767181,122.54490852356 C 93.9724652767181,122.54490852356 93.9724652767181,130.307829380035 93.9724652767181,130.307829380035 Z M 82.9536986351013,86.0781580209732 C 82.9536986351013,86.0781580209732 75.1945793628693,86.0781580209732 75.1945793628693,86.0781580209732 C 75.1945793628693,86.0781580209732 75.1945793628693,78.3152371644974 75.1945793628693,78.3152371644974 C 75.1945793628693,78.3152371644974 82.9536986351013,78.3152371644974 82.9536986351013,78.3152371644974 C 82.9536986351013,78.3152371644974 82.9536986351013,86.0781580209732 82.9536986351013,86.0781580209732 Z M 82.9536986351013,97.1021801233292 C 82.9536986351013,97.1021801233292 75.1945793628693,97.1021801233292 75.1945793628693,97.1021801233292 C 75.1945793628693,97.1021801233292 75.1945793628693,89.3392145633698 75.1945793628693,89.3392145633698 C 75.1945793628693,89.3392145633698 82.9536986351013,89.3392145633698 82.9536986351013,89.3392145633698 C 82.9536986351013,89.3392145633698 82.9536986351013,97.1021801233292 82.9536986351013,97.1021801233292 Z M 93.9724652767181,86.0781580209732 C 93.9724652767181,86.0781580209732 86.2132616043091,86.0781580209732 86.2132616043091,86.0781580209732 C 86.2132616043091,86.0781580209732 86.2132616043091,78.3152371644974 86.2132616043091,78.3152371644974 C 86.2132616043091,78.3152371644974 93.9724652767181,78.3152371644974 93.9724652767181,78.3152371644974 C 93.9724652767181,78.3152371644974 93.9724652767181,86.0781580209732 93.9724652767181,86.0781580209732 Z M 93.9724652767181,97.1021801233292 C 93.9724652767181,97.1021801233292 86.2132616043091,97.1021801233292 86.2132616043091,97.1021801233292 C 86.2132616043091,97.1021801233292 86.2132616043091,89.3392145633698 86.2132616043091,89.3392145633698 C 86.2132616043091,89.3392145633698 93.9724652767181,89.3392145633698 93.9724652767181,89.3392145633698 C 93.9724652767181,89.3392145633698 93.9724652767181,97.1021801233292 93.9724652767181,97.1021801233292 Z M 35.4291687011719,89.3392145633698 C 35.4291687011719,89.3392145633698 43.1883301734924,89.3392145633698 43.1883301734924,89.3392145633698 C 43.1883301734924,89.3392145633698 43.1883301734924,97.1021801233292 43.1883301734924,97.1021801233292 C 43.1883301734924,97.1021801233292 35.4291687011719,97.1021801233292 35.4291687011719,97.1021801233292 C 35.4291687011719,97.1021801233292 35.4291687011719,89.3392145633698 35.4291687011719,89.3392145633698 Z M 35.4291687011719,78.3152371644974 C 35.4291687011719,78.3152371644974 43.1883301734924,78.3152371644974 43.1883301734924,78.3152371644974 C 43.1883301734924,78.3152371644974 43.1883301734924,86.0781580209732 43.1883301734924,86.0781580209732 C 43.1883301734924,86.0781580209732 35.4291687011719,86.0781580209732 35.4291687011719,86.0781580209732 C 35.4291687011719,86.0781580209732 35.4291687011719,78.3152371644974 35.4291687011719,78.3152371644974 Z M 24.4105286598206,89.3392145633698 C 24.4105286598206,89.3392145633698 32.1696901321411,89.3392145633698 32.1696901321411,89.3392145633698 C 32.1696901321411,89.3392145633698 32.1696901321411,97.1021801233292 32.1696901321411,97.1021801233292 C 32.1696901321411,97.1021801233292 24.4105286598206,97.1021801233292 24.4105286598206,97.1021801233292 C 24.4105286598206,97.1021801233292 24.4105286598206,89.3392145633698 24.4105286598206,89.3392145633698 Z M 24.4105286598206,78.3152371644974 C 24.4105286598206,78.3152371644974 32.1696901321411,78.3152371644974 32.1696901321411,78.3152371644974 C 32.1696901321411,78.3152371644974 32.1696901321411,86.0781580209732 32.1696901321411,86.0781580209732 C 32.1696901321411,86.0781580209732 24.4105286598206,86.0781580209732 24.4105286598206,86.0781580209732 C 24.4105286598206,86.0781580209732 24.4105286598206,78.3152371644974 24.4105286598206,78.3152371644974 Z M 35.4291687011719,122.54490852356 C 35.4291687011719,122.54490852356 43.1883301734924,122.54490852356 43.1883301734924,122.54490852356 C 43.1883301734924,122.54490852356 43.1883301734924,130.307829380035 43.1883301734924,130.307829380035 C 43.1883301734924,130.307829380035 35.4291687011719,130.307829380035 35.4291687011719,130.307829380035 C 35.4291687011719,130.307829380035 35.4291687011719,122.54490852356 35.4291687011719,122.54490852356 Z M 35.4291687011719,111.520931124687 C 35.4291687011719,111.520931124687 43.1883301734924,111.520931124687 43.1883301734924,111.520931124687 C 43.1883301734924,111.520931124687 43.1883301734924,119.283843040466 43.1883301734924,119.283843040466 C 43.1883301734924,119.283843040466 35.4291687011719,119.283843040466 35.4291687011719,119.283843040466 C 35.4291687011719,119.283843040466 35.4291687011719,111.520931124687 35.4291687011719,111.520931124687 Z M 24.4105286598206,122.54490852356 C 24.4105286598206,122.54490852356 32.1696901321411,122.54490852356 32.1696901321411,122.54490852356 C 32.1696901321411,122.54490852356 32.1696901321411,130.307829380035 32.1696901321411,130.307829380035 C 32.1696901321411,130.307829380035 24.4105286598206,130.307829380035 24.4105286598206,130.307829380035 C 24.4105286598206,130.307829380035 24.4105286598206,122.54490852356 24.4105286598206,122.54490852356 Z M 24.4105286598206,111.520931124687 C 24.4105286598206,111.520931124687 32.1696901321411,111.520931124687 32.1696901321411,111.520931124687 C 32.1696901321411,111.520931124687 32.1696901321411,119.283843040466 32.1696901321411,119.283843040466 C 32.1696901321411,119.283843040466 24.4105286598206,119.283843040466 24.4105286598206,119.283843040466 C 24.4105286598206,119.283843040466 24.4105286598206,111.520931124687 24.4105286598206,111.520931124687 Z " fill-rule="nonzero" id="house-shape-PhotoshopSupply.com"/>
</g>
</svg>