<!DOCTYPE svg PUBLIC "-//W3C//DTD SVG 1.1//EN" "http://www.w3.org/Graphics/SVG/1.1/DTD/svg11.dtd">
<!-- Uploaded to: SVG Repo, www.svgrepo.com, Transformed by: SVG Repo Mixer Tools -->
<svg width="128px" height="128px" viewBox="0 0 1024 1024" class="icon" version="1.1" xmlns="http://www.w3.org/2000/svg" fill="#000000">
<g id="SVGRepo_bgCarrier" stroke-width="0"/>
<g id="SVGRepo_tracerCarrier" stroke-linecap="round" stroke-linejoin="round"/>
<g id="SVGRepo_iconCarrier">
<path d="M730.56 928h-640v-288a32 32 0 1 0-64 0v320a32 32 0 0 0 32 32h672a32 32 0 0 0 0-64zM58.56 544a32 32 0 0 0 32-32v-128a32 32 0 1 0-64 0v128a32 32 0 0 0 32 32zM46.4 285.44a32 32 0 0 0 12.16 2.56 32 32 0 0 0 12.16-2.56 29.76 29.76 0 0 0 10.56-6.72 32 32 0 0 0 6.72-34.88 29.76 29.76 0 0 0-6.72-10.56 32 32 0 0 0-10.56-6.72A32 32 0 0 0 58.56 224a32 32 0 0 0-22.72 54.72 37.12 37.12 0 0 0 10.56 6.72zM58.56 160a32 32 0 0 0 32-32V96h640a32 32 0 0 0 0-64h-672a32 32 0 0 0-32 32v64a32 32 0 0 0 32 32zM984.32 524.16a32 32 0 0 0-7.04-34.88l-224-224a32 32 0 0 0-45.12 45.12l169.28 169.6H314.56a32 32 0 1 0 0 64h562.88l-169.28 169.28a32 32 0 1 0 45.12 45.12l224-224a32 32 0 0 0 7.04-10.24z" fill="#ffffff"/>
</g>
</svg>